<?xml version="1.0" encoding="UTF-8"?>
<svg width="202px" height="25px" viewBox="0 0 202 25" version="1.1" xmlns="http://www.w3.org/2000/svg" xmlns:xlink="http://www.w3.org/1999/xlink">
    <title>Logo (1)</title>
    <g id="Page-1" stroke="none" stroke-width="1" fill="none" fill-rule="evenodd">
        <g id="Logo-(1)" fill-rule="nonzero">
            <g id="Group-2">
                <polygon id="Path" fill="#F86530" points="0 7.5922549 0 23 23 23 23 7.5922549 11.5 0"></polygon>
                <path d="M12.2400838,18.04961 L12.2400838,23 L10.7599839,23 L10.7599839,18.04961 C7.05863412,18.3409224 4.24265431,15.0391904 5.18243425,11.6729463 C5.25083424,11.427906 5.45088423,11.2364818 5.70688421,11.1712017 C7.87108406,10.6191051 10.2208839,11.425458 11.5000338,13.2559882 C12.7803837,11.42373 15.1308336,10.6195851 17.2931834,11.1712017 C17.5492334,11.2364818 17.7492334,11.427858 17.8176834,11.6729463 C18.7565833,15.0362144 15.9446835,18.3410664 12.2400838,18.04961 Z" id="Path" fill="#FFFFFF"></path>
                <path d="M12,15.4841894 L12,16.976522 C14.3494291,17.2376077 16.2997988,15.2825032 15.9617484,13.0365226 C14.1911798,12.7877702 12.5005539,13.8321582 12,15.4841894 Z" id="Path" fill="#F86530"></path>
                <path d="M10,15.4841894 L10,16.976522 C7.65057093,17.2376077 5.70020119,15.2825032 6.03825157,13.0365226 C7.80882021,12.7877702 9.49944608,13.8321582 10,15.4841894 Z" id="Path" fill="#F86530"></path>
            </g>
            <path d="M41.092,21.252 C43.396,21.252 45.412,20.118 46.492,18.336 L44.008,16.896 C43.468,17.868 42.37,18.444 41.092,18.444 C38.86,18.444 37.42,16.95 37.42,14.7 C37.42,12.45 38.86,10.956 41.092,10.956 C42.37,10.956 43.45,11.532 44.008,12.504 L46.492,11.064 C45.394,9.282 43.378,8.148 41.092,8.148 C37.294,8.148 34.54,10.992 34.54,14.7 C34.54,18.408 37.294,21.252 41.092,21.252 Z M54.4075,12 L50.5555,16.5 L50.5555,12 L47.9275,12 L47.9275,21 L49.9075,21 L53.7595,16.5 L53.7595,21 L56.3875,21 L56.3875,12 L54.4075,12 Z M62.7249,21.252 C65.5509,21.252 67.3149,19.47 67.3149,17.04 C67.3149,14.484 65.2449,13.116 63.5889,13.116 C62.6529,13.116 61.7709,13.386 61.1229,13.962 C61.3749,13.332 61.8429,12.81 63.4449,12.216 C65.3529,11.496 66.4689,10.83 66.8289,9.318 L64.5969,8.04 C64.0749,9.318 63.2829,9.552 61.3569,10.506 C58.4769,11.928 57.9189,13.458 57.9189,16.356 C57.9189,19.128 59.7369,21.252 62.7249,21.252 Z M62.7069,18.822 C61.6089,18.822 60.7449,18.066 60.7449,16.968 C60.7449,15.852 61.7169,15.222 62.6529,15.222 C63.7869,15.222 64.6149,15.996 64.6149,17.04 C64.6149,18.066 63.8229,18.822 62.7069,18.822 Z M75.0618,12 L71.2098,16.5 L71.2098,12 L68.5818,12 L68.5818,21 L70.5618,21 L74.4138,16.5 L74.4138,21 L77.042,21 L77.042,12 L75.0618,12 Z M84.405,11.748 C83.199,11.748 82.317,12.162 81.723,12.846 L81.723,12 L79.023,12 L79.023,24.6 L81.723,24.6 L81.723,20.154 C82.317,20.838 83.199,21.252 84.405,21.252 C86.763,21.252 88.707,19.182 88.707,16.5 C88.707,13.818 86.763,11.748 84.405,11.748 Z M83.865,18.696 C82.623,18.696 81.723,17.85 81.723,16.5 C81.723,15.15 82.623,14.304 83.865,14.304 C85.107,14.304 86.007,15.15 86.007,16.5 C86.007,17.85 85.107,18.696 83.865,18.696 Z M94.558,21.252 C96.322,21.252 97.852,20.334 98.626,18.93 L96.268,17.58 C95.98,18.21 95.314,18.588 94.522,18.588 C93.352,18.588 92.488,17.742 92.488,16.5 C92.488,15.258 93.352,14.412 94.522,14.412 C95.314,14.412 95.962,14.79 96.268,15.42 L98.626,14.052 C97.852,12.666 96.304,11.748 94.558,11.748 C91.822,11.748 89.788,13.818 89.788,16.5 C89.788,19.182 91.822,21.252 94.558,21.252 Z M108.441,21 L105.075,16.5 L108.351,12 L105.201,12 L102.501,15.942 L102.501,12 L99.801,12 L99.801,21 L102.501,21 L102.501,17.022 L105.381,21 L108.441,21 Z M115.913,12 L112.061,16.5 L112.061,12 L109.433,12 L109.433,21 L111.413,21 L115.265,16.5 L115.265,21 L117.893,21 L117.893,12 L115.913,12 Z M122.287,17.58 L128.677,17.58 C128.749,17.238 128.785,16.878 128.785,16.5 C128.785,13.782 126.841,11.748 124.213,11.748 C121.369,11.748 119.425,13.818 119.425,16.5 C119.425,19.182 121.333,21.252 124.411,21.252 C126.121,21.252 127.453,20.622 128.335,19.398 L126.175,18.156 C125.815,18.552 125.185,18.84 124.447,18.84 C123.457,18.84 122.629,18.516 122.287,17.58 Z M122.233,15.564 C122.485,14.646 123.169,14.142 124.195,14.142 C125.005,14.142 125.815,14.52 126.103,15.564 L122.233,15.564 Z" id="Shape" fill="#213744"></path>
            <path d="M138.54,8.4 L129.18,8.4 L129.18,11.172 L132.42,11.172 L132.42,21 L135.3,21 L135.3,11.172 L138.54,11.172 L138.54,8.4 Z M140.5055,17.58 L146.8955,17.58 C146.9675,17.238 147.0035,16.878 147.0035,16.5 C147.0035,13.782 145.0595,11.748 142.4315,11.748 C139.5875,11.748 137.6435,13.818 137.6435,16.5 C137.6435,19.182 139.5515,21.252 142.6295,21.252 C144.3395,21.252 145.6715,20.622 146.5535,19.398 L144.3935,18.156 C144.0335,18.552 143.4035,18.84 142.6655,18.84 C141.6755,18.84 140.8475,18.516 140.5055,17.58 Z M140.4515,15.564 C140.7035,14.646 141.3875,14.142 142.4135,14.142 C143.2235,14.142 144.0335,14.52 144.3215,15.564 L140.4515,15.564 Z M156.9949,12 L148.5349,12 L148.5349,21 L151.2349,21 L151.2349,14.52 L154.2949,14.52 L154.2949,21 L156.9949,21 L156.9949,12 Z M166.8063,12 L159.4623,12 L159.4623,17.094 C159.4623,18.21 159.0123,18.732 158.1663,18.48 L158.1663,21 C160.7943,21.306 162.1623,19.992 162.1623,17.274 L162.1623,14.592 L164.1063,14.592 L164.1063,21 L166.8063,21 L166.8063,12 Z M175.265,12 L171.4129,16.5 L171.4129,12 L168.7849,12 L168.7849,21 L170.7649,21 L174.617,16.5 L174.617,21 L177.245,21 L177.245,12 L175.265,12 Z M187.326,18.48 L187.326,12 L184.626,12 L184.626,18.48 L181.926,18.48 L181.926,12 L179.226,12 L179.226,21 L186.228,21 L186.228,23.412 L188.856,23.412 L188.856,18.48 L187.326,18.48 Z M194.425,14.7 L192.913,14.7 L192.913,12 L190.213,12 L190.213,21 L194.425,21 C196.603,21 197.953,19.74 197.953,17.85 C197.953,15.96 196.603,14.7 194.425,14.7 Z M198.853,12 L198.853,21 L201.553,21 L201.553,12 L198.853,12 Z M194.443,18.66 L192.913,18.66 L192.913,17.04 L194.443,17.04 C194.983,17.04 195.325,17.382 195.325,17.85 C195.325,18.318 194.983,18.66 194.443,18.66 Z" id="Shape" fill="#F86530"></path>
        </g>
    </g>
</svg>