<?xml version="1.0" encoding="UTF-8"?>
<svg width="206px" height="54px" viewBox="0 0 206 54" version="1.1" xmlns="http://www.w3.org/2000/svg" xmlns:xlink="http://www.w3.org/1999/xlink">
    <title>Logo (1)</title>
    <g id="Page-1" stroke="none" stroke-width="1" fill="none" fill-rule="evenodd">
        <g id="Logo-(1)" fill-rule="nonzero">
            <polygon id="Path" fill="#F86530" points="0 16.835 0 51 47 51 47 16.835 23.5 0"></polygon>
            <path d="M24.4802,40.6867 L24.4802,51 L21.52,51 L21.52,40.6867 C14.1173,41.2936 8.48534,34.415 10.3649,27.402 C10.5017,26.8915 10.9018,26.4927 11.4138,26.3567 C15.7422,25.2065 20.4418,26.8864 23.0001,30.7 C25.5608,26.8828 30.2617,25.2075 34.5864,26.3567 C35.0985,26.4927 35.4985,26.8914 35.6354,27.402 C37.5132,34.4088 31.8894,41.2939 24.4802,40.6867 Z" id="Path" fill="#FFFFFF"></path>
            <path d="M24.7139,34.3512 L24.7139,37.6424 C29.7394,38.2182 33.9113,33.9064 33.1882,28.9531 C29.4009,28.4045 25.7846,30.7078 24.7139,34.3512 Z" id="Path" fill="#F86530"></path>
            <path d="M21.5156,34.3512 L21.5156,37.6424 C16.4901,38.2182 12.3182,33.9064 13.0413,28.9531 C16.8286,28.4045 20.4449,30.7078 21.5156,34.3512 Z" id="Path" fill="#F86530"></path>
            <path d="M64.092,32.252 C66.396,32.252 68.412,31.118 69.492,29.336 L67.008,27.896 C66.468,28.868 65.37,29.444 64.092,29.444 C61.86,29.444 60.42,27.95 60.42,25.7 C60.42,23.45 61.86,21.956 64.092,21.956 C65.37,21.956 66.45,22.532 67.008,23.504 L69.492,22.064 C68.394,20.282 66.378,19.148 64.092,19.148 C60.294,19.148 57.54,21.992 57.54,25.7 C57.54,29.408 60.294,32.252 64.092,32.252 Z M77.4075,23 L73.5555,27.5 L73.5555,23 L70.9275,23 L70.9275,32 L72.9075,32 L76.7595,27.5 L76.7595,32 L79.3875,32 L79.3875,23 L77.4075,23 Z M85.7249,32.252 C88.5509,32.252 90.3149,30.47 90.3149,28.04 C90.3149,25.484 88.2449,24.116 86.5889,24.116 C85.6529,24.116 84.7709,24.386 84.1229,24.962 C84.3749,24.332 84.8429,23.81 86.4449,23.216 C88.3529,22.496 89.4689,21.83 89.8289,20.318 L87.5969,19.04 C87.0749,20.318 86.2829,20.552 84.3569,21.506 C81.4769,22.928 80.9189,24.458 80.9189,27.356 C80.9189,30.128 82.7369,32.252 85.7249,32.252 Z M85.7069,29.822 C84.6089,29.822 83.7449,29.066 83.7449,27.968 C83.7449,26.852 84.7169,26.222 85.6529,26.222 C86.7869,26.222 87.6149,26.996 87.6149,28.04 C87.6149,29.066 86.8229,29.822 85.7069,29.822 Z M98.0618,23 L94.2098,27.5 L94.2098,23 L91.5818,23 L91.5818,32 L93.5618,32 L97.4138,27.5 L97.4138,32 L100.042,32 L100.042,23 L98.0618,23 Z M107.405,22.748 C106.199,22.748 105.317,23.162 104.723,23.846 L104.723,23 L102.023,23 L102.023,35.6 L104.723,35.6 L104.723,31.154 C105.317,31.838 106.199,32.252 107.405,32.252 C109.763,32.252 111.707,30.182 111.707,27.5 C111.707,24.818 109.763,22.748 107.405,22.748 Z M106.865,29.696 C105.623,29.696 104.723,28.85 104.723,27.5 C104.723,26.15 105.623,25.304 106.865,25.304 C108.107,25.304 109.007,26.15 109.007,27.5 C109.007,28.85 108.107,29.696 106.865,29.696 Z M117.558,32.252 C119.322,32.252 120.852,31.334 121.626,29.93 L119.268,28.58 C118.98,29.21 118.314,29.588 117.522,29.588 C116.352,29.588 115.488,28.742 115.488,27.5 C115.488,26.258 116.352,25.412 117.522,25.412 C118.314,25.412 118.962,25.79 119.268,26.42 L121.626,25.052 C120.852,23.666 119.304,22.748 117.558,22.748 C114.822,22.748 112.788,24.818 112.788,27.5 C112.788,30.182 114.822,32.252 117.558,32.252 Z M131.441,32 L128.075,27.5 L131.351,23 L128.201,23 L125.501,26.942 L125.501,23 L122.801,23 L122.801,32 L125.501,32 L125.501,28.022 L128.381,32 L131.441,32 Z M138.913,23 L135.061,27.5 L135.061,23 L132.433,23 L132.433,32 L134.413,32 L138.265,27.5 L138.265,32 L140.893,32 L140.893,23 L138.913,23 Z M145.287,28.58 L151.677,28.58 C151.749,28.238 151.785,27.878 151.785,27.5 C151.785,24.782 149.841,22.748 147.213,22.748 C144.369,22.748 142.425,24.818 142.425,27.5 C142.425,30.182 144.333,32.252 147.411,32.252 C149.121,32.252 150.453,31.622 151.335,30.398 L149.175,29.156 C148.815,29.552 148.185,29.84 147.447,29.84 C146.457,29.84 145.629,29.516 145.287,28.58 Z M145.233,26.564 C145.485,25.646 146.169,25.142 147.195,25.142 C148.005,25.142 148.815,25.52 149.103,26.564 L145.233,26.564 Z" id="Shape" fill="#213744"></path>
            <path d="M66.54,38.4 L57.18,38.4 L57.18,41.172 L60.42,41.172 L60.42,51 L63.3,51 L63.3,41.172 L66.54,41.172 L66.54,38.4 Z M68.5055,47.58 L74.8955,47.58 C74.9675,47.238 75.0035,46.878 75.0035,46.5 C75.0035,43.782 73.0595,41.748 70.4315,41.748 C67.5875,41.748 65.6435,43.818 65.6435,46.5 C65.6435,49.182 67.5515,51.252 70.6295,51.252 C72.3395,51.252 73.6715,50.622 74.5535,49.398 L72.3935,48.156 C72.0335,48.552 71.4035,48.84 70.6655,48.84 C69.6755,48.84 68.8475,48.516 68.5055,47.58 Z M68.4515,45.564 C68.7035,44.646 69.3875,44.142 70.4135,44.142 C71.2235,44.142 72.0335,44.52 72.3215,45.564 L68.4515,45.564 Z M84.9949,42 L76.5349,42 L76.5349,51 L79.2349,51 L79.2349,44.52 L82.2949,44.52 L82.2949,51 L84.9949,51 L84.9949,42 Z M94.8063,42 L87.4623,42 L87.4623,47.094 C87.4623,48.21 87.0123,48.732 86.1663,48.48 L86.1663,51 C88.7943,51.306 90.1623,49.992 90.1623,47.274 L90.1623,44.592 L92.1063,44.592 L92.1063,51 L94.8063,51 L94.8063,42 Z M103.265,42 L99.4129,46.5 L99.4129,42 L96.7849,42 L96.7849,51 L98.7649,51 L102.617,46.5 L102.617,51 L105.245,51 L105.245,42 L103.265,42 Z M115.326,48.48 L115.326,42 L112.626,42 L112.626,48.48 L109.926,48.48 L109.926,42 L107.226,42 L107.226,51 L114.228,51 L114.228,53.412 L116.856,53.412 L116.856,48.48 L115.326,48.48 Z M122.425,44.7 L120.913,44.7 L120.913,42 L118.213,42 L118.213,51 L122.425,51 C124.603,51 125.953,49.74 125.953,47.85 C125.953,45.96 124.603,44.7 122.425,44.7 Z M126.853,42 L126.853,51 L129.553,51 L129.553,42 L126.853,42 Z M122.443,48.66 L120.913,48.66 L120.913,47.04 L122.443,47.04 C122.983,47.04 123.325,47.382 123.325,47.85 C123.325,48.318 122.983,48.66 122.443,48.66 Z" id="Shape" fill="#213744"></path>
            <path d="M162.88,51 L181.92,51 L181.92,44.84 L172.52,44.84 L177.16,40.16 C179.72,37.6 181.52,34.72 181.52,31.36 C181.52,25.72 177.04,22.44 172.04,22.44 C168.16,22.44 164.4,24.4 162.6,28.56 L168,31.72 C168.76,29.96 170.16,28.68 172.12,28.68 C174,28.68 175.12,29.88 175.12,31.64 C175.12,33.28 173.92,34.92 172.28,36.6 L162.88,46.36 L162.88,51 Z M205.738,40.6 L202.938,40.6 L202.938,34.6 L196.458,34.6 L196.458,40.6 L190.618,40.6 L199.538,23 L192.658,23 L183.738,40.6 L183.738,46.52 L196.458,46.52 L196.458,51 L202.938,51 L202.938,46.52 L205.738,46.52 L205.738,40.6 Z" id="Shape" fill="#F86530"></path>
        </g>
    </g>
</svg>